<svg xmlns="http://www.w3.org/2000/svg" viewBox="0 0 394.45 112.57"><defs><style>.cls-1,.cls-2{fill:#fff;}.cls-1{fill-rule:evenodd;}</style></defs><title>资源 2</title><g id="图层_2" data-name="图层 2"><g id="图层_2-2" data-name="图层 2"><path class="cls-1" d="M22.37,72.69c11-5.36,9.67-16.08,6.2-21.33S19.21,43.21,15.84,39.2C5.86,27.32-9,57.26,7.16,70.08,7.16,70.08,14.77,76.39,22.37,72.69Z"/><path class="cls-1" d="M94.39,70.49C83.09,65.81,83.76,55,86.89,49.58s8.85-8.71,12-12.91c9.24-12.47,25.9,16.5,10.55,30.29C109.41,67,102.2,73.72,94.39,70.49Z"/><path class="cls-1" d="M42.25,44.61C20.57,51.42,7.88,7.77,34.92,1.49,41.76-.1,45.37,4.81,47.87,9,50.7,13.69,66,37.17,42.25,44.61Z"/><path class="cls-1" d="M73.32,43.66C95.38,49.13,105.37,4.79,78,.17,71.07-1,67.77,4.12,65.53,8.42,63,13.31,49.2,37.69,73.32,43.66Z"/><path class="cls-2" d="M43,55.35C53.66,44.2,62.15,45,73,54.43c0,0,4.35,9.6,18.78,19.47S102.82,115.27,73,111c-4.58-.66-8.54-1.45-13.23-1.28-4.94.12-8.85,1.15-13.38,2.09C17,117.9,11.59,86.66,25.4,75.93S43,55.35,43,55.35Z"/><path class="cls-2" d="M196.56,82.8a7.72,7.72,0,0,1,2,4.18,35.25,35.25,0,0,1,.49,6.13,34.33,34.33,0,0,0,.49,6.14,4.76,4.76,0,0,0,2.46,3.69,12.74,12.74,0,0,0-6.63-1,17.33,17.33,0,0,0-4.67,1.48,19.64,19.64,0,0,1-3.19.73,7,7,0,0,1-3.19-.24,14.36,14.36,0,0,1-9.82-3.44,33,33,0,0,1-6.39-7.37,12.62,12.62,0,0,0-1.47-2.94,40.35,40.35,0,0,1-10.8,12.77q-6.88,5.39-13.26,5.4-6.89,0-9.82-1a12.46,12.46,0,0,0-4.42-1.23,29,29,0,0,0-6.38.24q5.39-7.86,6.87-13.75a26.17,26.17,0,0,1,6.38-11.78,32.85,32.85,0,0,1,3.44-3A33.92,33.92,0,0,0,143.52,73a44.06,44.06,0,0,1-9.33,0,4.69,4.69,0,0,1-1.72-1.47c-.49-.65-1.06-1.47-1.72-2.46q-1.47-4.41-8.83-10.8a7.19,7.19,0,0,0,4.91-1.72,15.09,15.09,0,0,0,3.43-4.66,32.33,32.33,0,0,1,2.7-3.2,3.78,3.78,0,0,1,2.7-1.22h5.9c3.27.33,6.21.49,8.84.49a33.9,33.9,0,0,0,.49-5.4,3.15,3.15,0,0,0,.24-2,3.29,3.29,0,0,1-.24-1.47v-.49a1.46,1.46,0,0,0-1-.49v.49h-.5a60.55,60.55,0,0,1-5.4,4.66,14.39,14.39,0,0,1-6.87,3.19,29.35,29.35,0,0,0-6.63.74q-3.19.73-7.61,2.21c-.33-2.95-.58-5.4-.74-7.37a31.24,31.24,0,0,1,0-5.64,11.6,11.6,0,0,1,.74-3.69l2.45-2.45c1-1.3,1.88-2.46,2.7-3.44a8.64,8.64,0,0,0,1.72-3.93,9.72,9.72,0,0,0,.25-5.64c-.49-1.48-2.21-3-5.16-4.67h3.93a60.44,60.44,0,0,0,6.87-2q5.9-3,10.32-2.95c4.58,0,7.93.58,10.06,1.72a10.28,10.28,0,0,1,4.67,5.16h23.57a19.26,19.26,0,0,1,7.61,2.7,80.52,80.52,0,0,1,8.59,6.13c-2.94,1.32-5,2.95-6.13,4.92a17.56,17.56,0,0,0-2.21,5.4,8.51,8.51,0,0,1-1.48,3.68,3.55,3.55,0,0,1-2.94,1.23,2,2,0,0,1-1.48-.49h-3.92a21.34,21.34,0,0,0-3.44.49h-2v8.84a1.42,1.42,0,0,0-.49,1h.49a13.24,13.24,0,0,0,3-.49,30.78,30.78,0,0,1,9.82-.49,17.35,17.35,0,0,1,6.88,2c1.63,1,3.1,2,4.42,3a19.27,19.27,0,0,0,2.94,2.45,17.93,17.93,0,0,0-5.4,7.86,17.07,17.07,0,0,1-3.19,6.14,11.39,11.39,0,0,1-6.63,3.68,8,8,0,0,1-2.46-.49h-4.91l-1,.49c2,1.64,4.25,3.44,6.88,5.4S192,81,193.61,81.33A6.38,6.38,0,0,1,196.56,82.8ZM256.46,72q1,11.79-.73,16.7c-1.15,3.26-3.85,4.91-8.1,4.91q-7.38,0-8.35-4.42a4.28,4.28,0,0,0-2.21-.74,25,25,0,0,0-3.44-.25H229a15.93,15.93,0,0,0-2.46.25,7.73,7.73,0,0,0-2.7,1,2.08,2.08,0,0,0-1.23,1.72q-.5,1-2.94,1.47a49.18,49.18,0,0,1-5.41.74c-2,.16-4.42.25-7.36.25a30.09,30.09,0,0,1-4.18-9.09,38.32,38.32,0,0,1-.73-12c0-.65.07-2,.24-4.17a68.88,68.88,0,0,1,1.23-8.11,111.81,111.81,0,0,1,1.47-12.27,1.42,1.42,0,0,0-.49-1A16,16,0,0,1,204.9,43a21,21,0,0,0-.24-3.69,2.33,2.33,0,0,0-1.23-1.71A6.08,6.08,0,0,1,202,35.17a27.5,27.5,0,0,1,9.33-3.44,17.7,17.7,0,0,1,5.89,0h1.47a46,46,0,0,1,8.35-2,62.25,62.25,0,0,1,9.82-1q14.73.5,17.19,8.84a43.7,43.7,0,0,1,2.21,9.57,86,86,0,0,1,.24,15V72ZM232.4,70V52.36c0-1.31-1.31-2-3.93-2-.66,0-1.06.17-1.22.49a3.37,3.37,0,0,0-.25,1.48V70a3.27,3.27,0,0,0,.25,1.47c.16.33.56.49,1.22.49C230.76,72,232.07,71.35,232.4,70Z"/><path class="cls-2" d="M377.76,84.77c0-.33.73-.57,2.21-.74a30.17,30.17,0,0,1,5.4,0c2.12.17,3.93.33,5.4.49a5.48,5.48,0,0,1,2.7.74A40.51,40.51,0,0,0,390,91.15,52.76,52.76,0,0,0,387.09,98a8.74,8.74,0,0,1-1.48,3.68,6,6,0,0,1-3.68,1.72,44.23,44.23,0,0,1-8.59.24q-5.89-.26-16.21-.73h-2.94q-17.2.48-24.8-2t-9.58-9.33h-1.47a4.48,4.48,0,0,1-2,.49,17.63,17.63,0,0,1-12.27-4.42q-2.46,4.92-8.84,10.32a25.79,25.79,0,0,1-15.72,5.89,10.55,10.55,0,0,1-4.17-.74,8.49,8.49,0,0,1-2.7-1.72,14.31,14.31,0,0,0-4.17-2.7q-2.72-1.23-9.09-1.72c1.31-5.24,3-8.91,5.16-11.05a27.12,27.12,0,0,1,7.12-5.15,32,32,0,0,0,7.85-4.42c2.62-2,5.41-5.23,8.35-9.82H283q-8.84,0-14.24-2a3.09,3.09,0,0,1-1.47-1.47c-.33-.65-.66-1.3-1-2-.66-1-1.32-1.88-2-2.7a13.31,13.31,0,0,0-3.44-2.71,12.26,12.26,0,0,0,5.41-2.94,17.88,17.88,0,0,1,2-1.72,4,4,0,0,1,2.46-.74c2.94,0,6.05.17,9.33.49h15.71A11.55,11.55,0,0,0,298,47.94a5.81,5.81,0,0,0,.74-2.46,12.67,12.67,0,0,0-1.48-2.94,16.64,16.64,0,0,0-2-2.46,35.57,35.57,0,0,1,4.42-1.47,21,21,0,0,1,4.91-.49q7.85,0,11.54,1.47a7.35,7.35,0,0,1,4.66,4.91,17.37,17.37,0,0,0,.25,3,15.47,15.47,0,0,1,.24,2l9.83-.49A12.24,12.24,0,0,1,329.63,44q-.5-5.4-2.94-5.89a83.77,83.77,0,0,1,9.33-.49q9.32,0,13.75,2.94l.49-.49a20,20,0,0,0,2.94,2.46,10.79,10.79,0,0,1,.49,3.43,2,2,0,0,1-.49,1.48l8.84.49q4.43-.48,8.35-1a43.27,43.27,0,0,1,8.35-1,27.36,27.36,0,0,1,7.36,2,70.72,70.72,0,0,1,8.35,4.42C393.14,54.65,392,56.53,391,58a13.64,13.64,0,0,1-4.17,3.93,11.16,11.16,0,0,1-6.14,1.72h-2a110.68,110.68,0,0,1-12.28.25c-2.62-.16-5.08-.25-7.36-.25H342.89c3.27,1.31,4.91,3.28,4.91,5.89V71Q362,67.09,362,64.63h20.14Q390,68.08,389.54,72a8.17,8.17,0,0,1-4.42,4.66,22.2,22.2,0,0,1-6.38,2.21h-.49q-11.79,3.45-29,7.86A4.39,4.39,0,0,0,352,89.19a10.9,10.9,0,0,0,4.66,0h4.42a63.44,63.44,0,0,0,10.31-.74A9,9,0,0,0,377.76,84.77ZM276.6,49.9q-16.22-.48-16.7-13.26c0-2.28,1.31-5.4,3.93-9.33q3.93-5.4,2.95-8.34,11.28,0,18.66,3.92c2.61,0,5.81-.07,9.57-.24s7.12-.41,10.07-.74a1.92,1.92,0,0,0,.49-2.21,11.19,11.19,0,0,0-2.46-3.19A44.09,44.09,0,0,1,310,13.32a26.63,26.63,0,0,1,8.84-1.23,69.87,69.87,0,0,1,17.43,2.21q8.6,2.2,9.58,6.14h5.4q18.17,0,26.76,1.23t10.56,6.13a12.89,12.89,0,0,1,.74,6.14,14.27,14.27,0,0,1-2.71,7.61c-1.64,2.3-4.25,3.61-7.85,3.93a60.36,60.36,0,0,1-12-1.23,127.26,127.26,0,0,1-15-4.17,24.43,24.43,0,0,0,3.19-1c.82-.32,1.55-.65,2.21-1s1-.66,1-1q-1-2.94-17.67-2.94h-1q-7.36,0-22.09,1.47-15.74,1-23.08,1a13.3,13.3,0,0,1-.5,3A24.48,24.48,0,0,1,292.31,42Q288.88,49.92,276.6,49.9Zm43.7,21.61V65.12h-2a13.48,13.48,0,0,1-2.95.5,1.42,1.42,0,0,1-.49,1,18,18,0,0,0-1,2.45q-2,3.45-2.46,4.42A19.26,19.26,0,0,0,309,77.89a8,8,0,0,0,2.45-.49,40.35,40.35,0,0,0,8.35-1.47,8,8,0,0,1,.49-2.46Z"/></g></g></svg>